<svg width="54" height="54" viewBox="0 0 54 54" fill="none" xmlns="http://www.w3.org/2000/svg">
  <rect x="1" y="1" width="52" height="52" rx="26" stroke="url(#paint0_linear_44_220)"
    stroke-width="2" />
  <g clip-path="url(#clip0_44_220)">
    <path
      d="M30.165 35.0142H23.7944C21.2573 35.0142 19.1934 32.9502 19.1934 30.4131V24.0425C19.1934 21.5054 21.2573 19.4414 23.7944 19.4414H30.165C32.7021 19.4414 34.7661 21.5054 34.7661 24.0425V30.4131C34.7661 32.9502 32.7021 35.0142 30.165 35.0142ZM23.7944 21.4414C22.3603 21.4414 21.1934 22.6084 21.1934 24.0425V30.4131C21.1934 31.8472 22.3603 33.0142 23.7944 33.0142H30.165C31.5991 33.0142 32.7661 31.8472 32.7661 30.4131V24.0425C32.7661 22.6084 31.5991 21.4414 30.165 21.4414H23.7944Z"
      fill="white" />
    <path
      d="M23.8867 20.9858C23.3345 20.9858 22.8867 20.5381 22.8867 19.9858C22.8867 17.7881 21.0986 16 18.9009 16H15C14.4477 16 14 15.5523 14 15C14 14.4477 14.4477 14 15 14H18.9009C22.2017 14 24.8867 16.6851 24.8867 19.9858C24.8867 20.5381 24.439 20.9858 23.8867 20.9858Z"
      fill="white" />
    <path
      d="M29.9805 20.9858C29.4282 20.9858 28.9805 20.5381 28.9805 19.9858V15C28.9805 14.4477 29.4282 14 29.9805 14C30.5327 14 30.9805 14.4477 30.9805 15V19.9858C30.9805 20.5381 30.5327 20.9858 29.9805 20.9858Z"
      fill="white" />
    <path
      d="M38.8672 40H34.9663C31.6655 40 28.9805 37.3149 28.9805 34.0142C28.9805 33.4619 29.4282 33.0142 29.9805 33.0142C30.5327 33.0142 30.9805 33.4619 30.9805 34.0142C30.9805 36.2119 32.7686 38 34.9663 38H38.8672C39.4194 38 39.8672 38.4478 39.8672 39C39.8672 39.5522 39.4194 40 38.8672 40Z"
      fill="white" />
    <path
      d="M23.8867 40C23.3345 40 22.8867 39.5522 22.8867 39V34.0142C22.8867 33.4619 23.3345 33.0142 23.8867 33.0142C24.439 33.0142 24.8867 33.4619 24.8867 34.0142V39C24.8867 39.5522 24.439 40 23.8867 40Z"
      fill="white" />
    <path
      d="M20.1934 31.4941H15.1846C14.6323 31.4941 14.1846 31.0464 14.1846 30.4941C14.1846 29.9419 14.6323 29.4941 15.1846 29.4941H20.1934C20.7456 29.4941 21.1934 29.9419 21.1934 30.4941C21.1934 31.0464 20.7456 31.4941 20.1934 31.4941Z"
      fill="white" />
    <path
      d="M20.1934 24.9614H15.1846C14.6323 24.9614 14.1846 24.5137 14.1846 23.9614C14.1846 23.4092 14.6323 22.9614 15.1846 22.9614H20.1934C20.7456 22.9614 21.1934 23.4092 21.1934 23.9614C21.1934 24.5137 20.7456 24.9614 20.1934 24.9614Z"
      fill="white" />
    <path
      d="M38.7749 31.4941H33.7661C33.2139 31.4941 32.7661 31.0464 32.7661 30.4941C32.7661 29.9419 33.2139 29.4941 33.7661 29.4941H38.7749C39.3272 29.4941 39.7749 29.9419 39.7749 30.4941C39.7749 31.0464 39.3272 31.4941 38.7749 31.4941Z"
      fill="white" />
    <path
      d="M38.7749 24.9614H33.7661C33.2139 24.9614 32.7661 24.5137 32.7661 23.9614C32.7661 23.4092 33.2139 22.9614 33.7661 22.9614H38.7749C39.3272 22.9614 39.7749 23.4092 39.7749 23.9614C39.7749 24.5137 39.3272 24.9614 38.7749 24.9614Z"
      fill="white" />
  </g>
  <defs>
    <linearGradient id="paint0_linear_44_220" x1="29.3973" y1="2.5" x2="29.3973" y2="52.5"
      gradientUnits="userSpaceOnUse">
      <stop stop-color="#5FF0E0" />
      <stop offset="1" stop-color="#717BF7" />
    </linearGradient>
    <clipPath id="clip0_44_220">
      <rect width="25.8672" height="26" fill="white" transform="translate(14 14)" />
    </clipPath>
  </defs>
</svg>
  