<svg width="54" height="54" viewBox="0 0 54 54" fill="none" xmlns="http://www.w3.org/2000/svg">
  <rect x="1" y="1" width="52" height="52" rx="26" stroke="url(#paint0_linear_44_206)"
    stroke-width="2" />
  <path
    d="M29.7239 31.0383H23.8176C20.5559 31.0383 17.9026 28.385 17.9026 25.1233V24.0627C17.9026 20.4299 20.4895 17.2825 24.053 16.5789C25.8557 16.2224 27.6848 16.2224 29.4875 16.5789C33.052 17.2825 35.6389 20.4299 35.6389 24.0628V25.1233C35.6389 28.385 32.9856 31.0383 29.7239 31.0383ZM24.4397 18.5408C21.8108 19.0603 19.9026 21.3826 19.9026 24.0627V25.1233C19.9026 27.282 21.6584 29.0383 23.8176 29.0383H29.7239C31.8831 29.0383 33.6389 27.282 33.6389 25.1233V24.0627C33.6389 21.3821 31.7307 19.0598 29.1008 18.5408C27.5539 18.2361 25.9866 18.2361 24.4397 18.5408Z"
    fill="white" />
  <path
    d="M34.1915 28.1727C33.6788 28.1727 33.2433 27.7815 33.1964 27.2615C33.1476 26.7147 33.5489 26.2313 34.0948 26.1776C34.214 26.1634 34.381 26.1077 34.4327 26.0648C34.4269 26.0609 34.4962 25.6932 34.5157 23.7254C34.5197 23.2405 34.4132 22.8504 34.3068 22.6722H34.1925C33.6398 22.6722 33.1925 22.2244 33.1925 21.6722C33.1925 21.1199 33.6398 20.6722 34.1925 20.6722H34.6437C34.7247 20.6722 34.8048 20.6819 34.8839 20.7015C35.2745 20.7982 35.6144 21.0555 35.92 21.4876C36.3068 22.0355 36.5236 22.8577 36.5157 23.744C36.4962 25.7874 36.3995 26.3861 36.3185 26.6795C36.0431 27.6693 35.0489 28.1004 34.2814 28.1688C34.2511 28.1712 34.2208 28.1727 34.1915 28.1727Z"
    fill="white" />
  <path
    d="M19.3244 28.1561C19.2951 28.1561 19.2649 28.1546 19.2346 28.1522C18.466 28.0838 17.4719 27.6526 17.1975 26.6629C17.1496 26.4881 17.0197 26.0232 17.0002 23.7278C16.9924 22.8416 17.2092 22.0193 17.5949 21.4725C17.8918 21.0486 18.2404 20.783 18.6272 20.6858C18.7072 20.6658 18.7893 20.6556 18.8713 20.6556H19.3235C19.8762 20.6556 20.3235 21.1033 20.3235 21.6556C20.3235 22.2078 19.8762 22.6556 19.3235 22.6556H19.2102C19.1018 22.8367 18.9963 23.2259 19.0002 23.7103C19.0139 25.3035 19.0852 25.9798 19.1252 26.1287C19.1262 26.0882 19.3029 26.1473 19.4231 26.161C19.967 26.223 20.3674 26.7112 20.3117 27.2562C20.26 27.7708 19.8313 28.1561 19.3244 28.1561Z"
    fill="white" />
  <path
    d="M29.7008 24.9803C30.6665 24.9803 31.4493 24.2729 31.4493 23.4003C31.4493 22.5276 30.6665 21.8202 29.7008 21.8202C28.7352 21.8202 27.9524 22.5276 27.9524 23.4003C27.9524 24.2729 28.7352 24.9803 29.7008 24.9803Z"
    fill="white" />
  <path
    d="M23.8288 24.9803C24.7944 24.9803 25.5772 24.2729 25.5772 23.4003C25.5772 22.5276 24.7944 21.8202 23.8288 21.8202C22.8631 21.8202 22.0803 22.5276 22.0803 23.4003C22.0803 24.2729 22.8631 24.9803 23.8288 24.9803Z"
    fill="white" />
  <path
    d="M26.8177 28.4153C25.5443 28.4153 24.6273 27.7933 24.5706 27.7537C24.1165 27.4388 24.0042 26.8157 24.3196 26.3621C24.6331 25.9114 25.2493 25.7982 25.7025 26.1053C25.8157 26.179 26.7903 26.7737 27.9007 26.0843C28.3704 25.7908 28.9866 25.9344 29.2786 26.4031C29.5706 26.8714 29.428 27.4886 28.9593 27.7806C28.1985 28.2557 27.4622 28.4153 26.8177 28.4153Z"
    fill="white" />
  <path
    d="M26.7854 39.9964C25.4016 39.9964 24.0178 39.6951 22.7571 39.0925C21.5969 38.5393 20.9035 37.9055 20.6369 37.1555C20.5617 36.9446 20.4748 36.7332 20.385 36.5159C19.7434 34.9573 18.9455 33.0178 20.549 29.0545C20.7561 28.5422 21.3391 28.2962 21.8508 28.5022C22.3625 28.7097 22.6096 29.2927 22.4026 29.8045C21.1057 33.0115 21.6789 34.406 22.2346 35.7546C22.3362 36.0022 22.4348 36.2429 22.5207 36.4841C22.5266 36.4993 22.6516 36.8264 23.6184 37.2879C25.6008 38.2351 27.968 38.2351 29.9524 37.2879C30.9182 36.8269 31.0451 36.4978 31.05 36.4841C31.136 36.2429 31.2346 36.0022 31.3362 35.7546C31.8918 34.406 32.4651 33.0115 31.1682 29.8045C30.9612 29.2927 31.2082 28.7097 31.7199 28.5022C32.2326 28.2957 32.8147 28.5422 33.0217 29.0545C34.6252 33.0178 33.8274 34.9573 33.1858 36.5159C33.0959 36.7332 33.009 36.9446 32.9328 37.157C32.6653 37.907 31.9719 38.5398 30.8137 39.0925C29.553 39.6951 28.1692 39.9964 26.7854 39.9964Z"
    fill="white" />
  <path
    d="M31.2765 19.0813C31.1408 19.0813 31.0021 19.053 30.8703 18.9939C30.3654 18.7688 30.1388 18.1775 30.3644 17.6731L31.7394 14.593C31.964 14.0891 32.5558 13.8611 33.0597 14.0877C33.5646 14.3128 33.7912 14.9041 33.5656 15.4085L32.1906 18.4886C32.0246 18.8601 31.6593 19.0813 31.2765 19.0813Z"
    fill="white" />
  <path
    d="M22.2531 19.0813C21.8703 19.0813 21.505 18.8601 21.339 18.4886L19.964 15.4085C19.7384 14.9041 19.965 14.3128 20.4699 14.0877C20.9738 13.8611 21.5656 14.0891 21.7902 14.593L23.1652 17.6731C23.3908 18.1775 23.1642 18.7688 22.6593 18.9939C22.5275 19.053 22.3888 19.0813 22.2531 19.0813Z"
    fill="white" />
  <defs>
    <linearGradient id="paint0_linear_44_206" x1="29.3973" y1="2.5" x2="29.3973" y2="52.5"
      gradientUnits="userSpaceOnUse">
      <stop stop-color="#5FF0E0" />
      <stop offset="1" stop-color="#717BF7" />
    </linearGradient>
  </defs>
</svg>
  