<svg width="54" height="54" viewBox="0 0 54 54" fill="none" xmlns="http://www.w3.org/2000/svg">
  <rect x="1" y="1" width="52" height="52" rx="26" stroke="url(#paint0_linear_44_255)"
    stroke-width="2" />
  <g clip-path="url(#clip0_44_255)">
    <path
      d="M27.2991 33.9209C26.7844 33.9209 26.3588 33.5131 26.341 32.9947L26.3372 32.8118C26.3007 31.895 26.5154 31.4731 26.8688 30.8638C27.4069 29.9319 28.2553 29.2232 29.4628 28.7C32.1074 27.5498 33.5662 24.8498 33.0899 21.9802C32.818 20.3415 31.8384 18.8649 30.4031 17.9265C28.9744 16.9937 27.2428 16.6909 25.6491 17.095C22.7448 17.8328 20.8886 20.2955 20.9205 23.3695C20.9261 23.9001 20.5005 24.3342 19.9708 24.3398H19.9605C19.4346 24.3398 19.0061 23.917 19.0005 23.3902C18.9593 19.3984 21.3836 16.1978 25.1766 15.2341C27.2888 14.6978 29.5772 15.0925 31.4531 16.3197C33.3374 17.5506 34.6236 19.4987 34.9836 21.6652C35.6061 25.4198 33.6946 28.9541 30.2269 30.4606C29.4113 30.815 28.8563 31.2613 28.531 31.8256C28.2666 32.2812 28.2394 32.3281 28.2563 32.7743L28.2591 32.9272C28.2778 33.4568 27.8635 33.9021 27.3338 33.9199C27.3216 33.9209 27.3103 33.9209 27.2991 33.9209Z"
      fill="white" />
    <path
      d="M27.4057 39C28.23 39 28.8982 38.3318 28.8982 37.5075C28.8982 36.6832 28.23 36.015 27.4057 36.015C26.5814 36.015 25.9132 36.6832 25.9132 37.5075C25.9132 38.3318 26.5814 39 27.4057 39Z"
      fill="white" />
  </g>
  <defs>
    <linearGradient id="paint0_linear_44_255" x1="29.3973" y1="2" x2="29.3973" y2="52"
      gradientUnits="userSpaceOnUse">
      <stop stop-color="#5FF0E0" />
      <stop offset="1" stop-color="#717BF7" />
    </linearGradient>
    <clipPath id="clip0_44_255">
      <rect width="16.1002" height="24" fill="white" transform="translate(19 15)" />
    </clipPath>
  </defs>
</svg>
  