<svg width="54" height="54" viewBox="0 0 54 54" fill="none" xmlns="http://www.w3.org/2000/svg">
  <rect x="1" y="1" width="52" height="52" rx="26" fill="black" />
  <rect x="1" y="1" width="52" height="52" rx="26" stroke="url(#paint0_linear_44_36)"
    stroke-width="2" />
  <path
    d="M24.6855 35.3706C18.7935 35.3706 14 30.5772 14 24.6855C14 18.7935 18.7935 14 24.6855 14C30.5772 14 35.3706 18.7935 35.3706 24.6855C35.3706 30.5772 30.5772 35.3706 24.6855 35.3706ZM24.6855 16C19.8965 16 16 19.8965 16 24.6855C16 29.4746 19.8965 33.3706 24.6855 33.3706C29.4746 33.3706 33.3706 29.4746 33.3706 24.6855C33.3706 19.8965 29.4746 16 24.6855 16Z"
    fill="white" />
  <path
    d="M39 40C38.7441 40 38.4883 39.9023 38.293 39.707L30.8872 32.3013C30.4966 31.9106 30.4966 31.2778 30.8872 30.8872C31.2778 30.4966 31.9106 30.4966 32.3013 30.8872L39.707 38.293C40.0976 38.6836 40.0976 39.3164 39.707 39.707C39.5117 39.9023 39.2559 40 39 40Z"
    fill="white" />
  <defs>
    <linearGradient id="paint0_linear_44_36" x1="27" y1="2.5" x2="27" y2="52.5"
      gradientUnits="userSpaceOnUse">
      <stop stop-color="#5FF0E0" />
      <stop offset="1" stop-color="#717BF7" />
    </linearGradient>
  </defs>
</svg>
  