<svg width="36" height="36" viewBox="0 0 36 36" fill="none" xmlns="http://www.w3.org/2000/svg">
    <mask id="mask0_1_72" style="mask-type:alpha" maskUnits="userSpaceOnUse" x="0" y="0" width="36"
        height="36">
        <rect width="36" height="36" fill="#D9D9D9" />
    </mask>
    <g mask="url(#mask0_1_72)">
        <path
            d="M29.4 30.7929L20.3036 21.6964L19.9871 21.38L19.6377 21.6596C18.934 22.2225 18.1207 22.6716 17.1936 23.0044C16.276 23.3338 15.296 23.5 14.25 23.5C11.6545 23.5 9.47637 22.6068 7.6848 20.8152C5.89324 19.0236 5 16.8455 5 14.25C5 11.6545 5.89324 9.47637 7.6848 7.6848C9.47637 5.89324 11.6545 5 14.25 5C16.8455 5 19.0236 5.89324 20.8152 7.6848C22.6068 9.47637 23.5 11.6545 23.5 14.25C23.5 15.296 23.3338 16.276 23.0044 17.1936C22.6716 18.1207 22.2225 18.934 21.6596 19.6377L21.38 19.9871L21.6964 20.3036L30.7929 29.4L29.4 30.7929ZM14.25 21.5C16.2561 21.5 17.9775 20.7921 19.3848 19.3848C20.7921 17.9775 21.5 16.2561 21.5 14.25C21.5 12.2439 20.7921 10.5225 19.3848 9.1152C17.9775 7.70786 16.2561 7 14.25 7C12.2439 7 10.5225 7.70786 9.1152 9.1152C7.70786 10.5225 7 12.2439 7 14.25C7 16.2561 7.70786 17.9775 9.1152 19.3848C10.5225 20.7921 12.2439 21.5 14.25 21.5Z"
            fill="white" stroke="black" />
    </g>
</svg>
    