<svg width="36" height="36" viewBox="0 0 36 36" fill="none" xmlns="http://www.w3.org/2000/svg">
    <path
        d="M10.5 21L13.9393 17.5606C14.5251 16.9749 15.4749 16.9749 16.0606 17.5606L18.4393 19.9394C19.0251 20.5251 19.9749 20.5251 20.5606 19.9394L25.5 15M25.5 15V18.75M25.5 15H21.75"
        stroke="white" stroke-linecap="round" stroke-linejoin="round" />
    <path
        d="M31 18C31 23.8925 31 26.8389 29.1694 28.6694C27.3389 30.5 24.3925 30.5 18.5 30.5C12.6074 30.5 9.66116 30.5 7.83059 28.6694C6 26.8389 6 23.8925 6 18C6 12.1074 6 9.16116 7.83059 7.33059C9.66116 5.5 12.6074 5.5 18.5 5.5C24.3925 5.5 27.3389 5.5 29.1694 7.33059C30.3866 8.54776 30.7945 10.2582 30.9311 13"
        stroke="white" stroke-linecap="round" />
</svg>
    