<svg width="54" height="54" viewBox="0 0 54 54" fill="none" xmlns="http://www.w3.org/2000/svg">
  <rect x="1" y="1" width="52" height="52" rx="26" stroke="url(#paint0_linear_44_183)"
    stroke-width="2" />
  <g clip-path="url(#clip0_44_183)">
    <path
      d="M25.998 35.0405H20.3037C18.6279 35.0405 17.0459 34.3867 15.8477 33.1997C14.6553 32.0073 14 30.4238 14 28.7368C14 25.2608 16.8281 22.4326 20.3037 22.4326H25.998C28.5537 22.4326 30.8389 23.9585 31.8213 26.3198C32.0342 26.8301 31.793 27.415 31.2822 27.6274C30.7764 27.8398 30.1875 27.5986 29.9756 27.0884C29.3037 25.4751 27.7432 24.4326 25.998 24.4326H20.3037C17.9307 24.4326 16 26.3633 16 28.7368C16 29.8892 16.4473 30.9707 17.2588 31.7817C18.0762 32.5923 19.1592 33.0405 20.3037 33.0405H25.998C27.1436 33.0405 28.2266 32.5923 29.0469 31.7788C29.4404 31.3897 30.0732 31.3936 30.4609 31.7852C30.8496 32.1777 30.8467 32.8111 30.4551 33.1997C29.2568 34.3867 27.6738 35.0405 25.998 35.0405Z"
      fill="white" />
    <path
      d="M33.6953 30.6079H28.0019C26.3261 30.6079 24.7431 29.9541 23.5449 28.7671C22.9101 28.1328 22.4091 27.3555 22.0957 26.5171C21.9023 25.9995 22.164 25.4233 22.6816 25.23C23.1982 25.0356 23.7753 25.2988 23.9687 25.8159C24.1826 26.3882 24.5244 26.9185 24.955 27.3491C25.7734 28.1597 26.8564 28.6079 28.0019 28.6079H33.6953C34.8408 28.6079 35.9238 28.1597 36.7441 27.3462C37.5527 26.5381 38 25.4565 38 24.3037C38 21.9307 36.0693 20 33.6953 20H28.0019C26.875 20 25.8086 20.4341 25 21.2222C24.6064 21.6074 23.9716 21.6001 23.5859 21.2036C23.2002 20.8081 23.208 20.1753 23.6035 19.7896C24.7881 18.6357 26.3506 18 28.0019 18H33.6953C37.1718 18 40 20.8276 40 24.3037C40 25.9907 39.3447 27.5747 38.1552 28.7642C36.9541 29.9541 35.371 30.6079 33.6953 30.6079Z"
      fill="white" />
  </g>
  <defs>
    <linearGradient id="paint0_linear_44_183" x1="29.3973" y1="2.5" x2="29.3973" y2="52.5"
      gradientUnits="userSpaceOnUse">
      <stop stop-color="#5FF0E0" />
      <stop offset="1" stop-color="#717BF7" />
    </linearGradient>
    <clipPath id="clip0_44_183">
      <rect width="26" height="17.0405" fill="white" transform="translate(14 18)" />
    </clipPath>
  </defs>
</svg>
  