<svg width="36" height="36" viewBox="0 0 36 36" fill="none" xmlns="http://www.w3.org/2000/svg">
    <path
        d="M13.71 10.845C14.382 9.94599 15.2564 9.21804 16.2624 8.72026C17.2684 8.22247 18.3776 7.96887 19.5 7.98003H26.67C28.5676 7.98003 30.3875 8.73386 31.7293 10.0757C33.0712 11.4175 33.825 13.2374 33.825 15.135C33.825 17.0327 33.0712 18.8526 31.7293 20.1944C30.3875 21.5362 28.5676 22.29 26.67 22.29H19.5C17.853 22.2892 16.2567 21.7202 14.9805 20.679C13.7044 19.6379 12.8265 18.1883 12.495 16.575"
        stroke="white" stroke-miterlimit="10" />
    <path
        d="M23.58 19.5C23.2485 17.8867 22.3706 16.4372 21.0945 15.396C19.8183 14.3549 18.222 13.7859 16.575 13.785H9.405C7.50738 13.785 5.68747 14.5389 4.34565 15.8807C3.00383 17.2225 2.25 19.0424 2.25 20.94C2.25 22.8377 3.00383 24.6576 4.34565 25.9994C5.68747 27.3412 7.50738 28.095 9.405 28.095H16.575C17.5133 28.0967 18.4426 27.9134 19.31 27.5556C20.1774 27.1979 20.9657 26.6727 21.63 26.01C21.8744 25.7717 22.0954 25.5105 22.29 25.23"
        stroke="white" stroke-miterlimit="10" />
</svg>
    