<svg width="54" height="54" viewBox="0 0 54 54" fill="none" xmlns="http://www.w3.org/2000/svg">
  <rect x="1" y="1" width="52" height="52" rx="26" stroke="url(#paint0_linear_44_191)"
    stroke-width="2" />
  <path
    d="M38.7382 29.7382L38.703 29.7377C38.1513 29.7187 37.7186 29.2558 37.7382 28.7036L37.9608 22.2231L31.4813 21.9995C30.9286 21.9804 30.497 21.5175 30.5165 20.9653C30.536 20.4135 31.0204 19.9843 31.5497 20.0004L39.0292 20.2587C39.5819 20.2778 40.0136 20.7407 39.994 21.2929L39.7362 28.7729C39.7177 29.3129 39.2743 29.7382 38.7382 29.7382Z"
    fill="white" />
  <path
    d="M15 33.5024C14.7441 33.5024 14.4883 33.4047 14.293 33.2094C13.9023 32.8188 13.9023 32.186 14.293 31.7954L18.7559 27.3325C20.2036 25.8857 22.5581 25.8857 24.0039 27.3325L26.5503 29.8784C27.1968 30.5253 28.3232 30.5253 28.9697 29.8784L38.293 20.5556C38.6836 20.165 39.3164 20.165 39.707 20.5556C40.0976 20.9462 40.0976 21.579 39.707 21.9697L30.3838 31.2924C28.9834 32.6957 26.5376 32.6948 25.1362 31.2924L22.5898 28.7465C21.9233 28.0795 20.8374 28.0795 20.1699 28.7465L15.707 33.2094C15.5117 33.4047 15.2559 33.5024 15 33.5024Z"
    fill="white" />
  <defs>
    <linearGradient id="paint0_linear_44_191" x1="29.3973" y1="2.5" x2="29.3973" y2="52.5"
      gradientUnits="userSpaceOnUse">
      <stop stop-color="#5FF0E0" />
      <stop offset="1" stop-color="#717BF7" />
    </linearGradient>
  </defs>
</svg>
  