<svg width="54" height="54" viewBox="0 0 54 54" fill="none" xmlns="http://www.w3.org/2000/svg">
  <rect x="1" y="1" width="52" height="52" rx="26" stroke="url(#paint0_linear_44_515)"
    stroke-width="2" />
  <path
    d="M40.1582 23.365L40.1231 23.3645C39.5703 23.3455 39.1387 22.8826 39.1582 22.3304L39.3692 16.2112L33.251 15.9998C32.6983 15.9807 32.2666 15.5179 32.2862 14.9656C32.3057 14.4138 32.7822 13.9793 33.3194 14.0008L40.4375 14.2469C40.9902 14.2659 41.4219 14.7288 41.4024 15.281L41.1563 22.3997C41.1377 22.9397 40.6944 23.365 40.1582 23.365Z"
    fill="white" />
  <path
    d="M17.5674 26.947C17.3115 26.947 17.0557 26.8494 16.8603 26.6541C16.4697 26.2635 16.4697 25.6301 16.8603 25.24L21.1084 20.9929C22.46 19.6409 24.8193 19.6399 26.1709 20.9929L28.5937 23.4158C29.1914 24.0125 30.2305 24.013 30.8281 23.4163L39.7002 14.5437C40.0908 14.1531 40.7236 14.1531 41.1143 14.5437C41.5049 14.9343 41.5049 15.5672 41.1143 15.9578L32.2422 24.8299C30.8906 26.1819 28.5322 26.1829 27.1797 24.8299L24.7568 22.407C24.1592 21.8103 23.1201 21.8098 22.5225 22.4065L18.2744 26.6541C18.0791 26.8494 17.8232 26.947 17.5674 26.947Z"
    fill="white" />
  <path
    d="M20.124 40.0003L20.0889 39.9998L12.9707 39.7542C12.419 39.7351 11.9863 39.2723 12.0059 38.7205L12.251 31.6018C12.2705 31.0496 12.7403 30.6199 13.2842 30.6365C13.836 30.6556 14.2686 31.1184 14.249 31.6702L14.0391 37.7898L20.1572 38.0008C20.71 38.0198 21.1416 38.4827 21.1221 39.035C21.1035 39.575 20.6602 40.0003 20.124 40.0003Z"
    fill="white" />
  <path
    d="M13 39.7503C12.7441 39.7503 12.4883 39.6526 12.293 39.4573C11.9023 39.0667 11.9023 38.4339 12.293 38.0433L21.165 29.1712C22.5615 27.7737 24.832 27.7757 26.2285 29.1712L28.6514 31.594C29.249 32.1917 30.2881 32.1907 30.8857 31.594L35.1328 27.347C35.5234 26.9563 36.1563 26.9563 36.5469 27.347C36.9375 27.7376 36.9375 28.3704 36.5469 28.761L32.2998 33.0081C30.9473 34.3611 28.5879 34.3606 27.2373 33.0076L24.8145 30.5852C24.1963 29.9685 23.1953 29.9695 22.5791 30.5852L13.707 39.4573C13.5117 39.6526 13.2559 39.7503 13 39.7503Z"
    fill="white" />
  <defs>
    <linearGradient id="paint0_linear_44_515" x1="29.3973" y1="2" x2="29.3973" y2="52"
      gradientUnits="userSpaceOnUse">
      <stop stop-color="#5FF0E0" />
      <stop offset="1" stop-color="#717BF7" />
    </linearGradient>
  </defs>
</svg>
  