<svg width="54" height="54" viewBox="0 0 54 54" fill="none" xmlns="http://www.w3.org/2000/svg">
  <rect x="1" y="1" width="52" height="52" rx="26" stroke="url(#paint0_linear_44_59)"
    stroke-width="2" />
  <g clip-path="url(#clip0_44_59)">
    <path
      d="M27 40C26.4477 40 26 39.5522 26 39V15C26 14.4477 26.4477 14 27 14C27.5523 14 28 14.4477 28 15V39C28 39.5522 27.5523 40 27 40Z"
      fill="white" />
    <path
      d="M39 28H15C14.4477 28 14 27.5523 14 27C14 26.4477 14.4477 26 15 26H39C39.5522 26 40 26.4477 40 27C40 27.5523 39.5522 28 39 28Z"
      fill="white" />
  </g>
  <defs>
    <linearGradient id="paint0_linear_44_59" x1="29.3973" y1="2.5" x2="29.3973" y2="52.5"
      gradientUnits="userSpaceOnUse">
      <stop stop-color="#5FF0E0" />
      <stop offset="1" stop-color="#717BF7" />
    </linearGradient>
    <clipPath id="clip0_44_59">
      <rect width="26" height="26" fill="white" transform="translate(14 14)" />
    </clipPath>
  </defs>
</svg>
  