<svg width="24" height="24" viewBox="0 0 24 24" fill="none" xmlns="http://www.w3.org/2000/svg">
    <path
        d="M2.20843 22.6143C1.67918 22.6145 1.25 22.1856 1.25 21.6563C1.25 21.1618 1.67178 20.6611 2.29986 20.355C2.72284 20.1489 3.17409 19.8325 3.51974 19.3481C3.86918 18.8584 4.09062 18.2246 4.09062 17.4225V8.43192L4.09062 8.42467L4.09063 8.42019C4.09089 8.34975 4.10995 6.58526 5.06386 4.85474C5.53671 3.99692 6.23572 3.15372 7.27392 2.52304C8.31103 1.89302 9.71441 1.45813 11.6231 1.45813C15.0874 1.45813 17.142 2.46394 18.336 3.75379C19.5384 5.05283 19.9375 6.71496 19.9375 8.1525V17.7531C19.9375 17.7768 19.9369 17.8086 19.9363 17.8449C19.9349 17.9283 19.933 18.0355 19.9364 18.1231C19.9562 18.6212 20.1621 19.9698 21.6928 20.5413C22.3417 20.7835 22.75 21.2314 22.75 21.6979C22.75 22.1984 22.3444 22.6042 21.8439 22.6045L2.20843 22.6143Z"
        stroke="white" />
</svg>
    