<svg width="54" height="54" viewBox="0 0 54 54" fill="none" xmlns="http://www.w3.org/2000/svg">
  <rect x="1" y="1" width="52" height="52" rx="26" stroke="url(#paint0_linear_46_239)"
    stroke-width="2" />
  <path
    d="M32.3467 40.0006H22C19.7944 40.0006 18 38.2062 18 36.0006V18.0006C18 15.795 19.7944 14.0006 22 14.0006H32.3467C34.5522 14.0006 36.3467 15.795 36.3467 18.0006V36.0006C36.3467 38.2062 34.5522 40.0006 32.3467 40.0006ZM22 16.0006C20.897 16.0006 20 16.8976 20 18.0006V36.0006C20 37.1036 20.897 38.0006 22 38.0006H32.3467C33.4497 38.0006 34.3467 37.1036 34.3467 36.0006V18.0006C34.3467 16.8976 33.4497 16.0006 32.3467 16.0006H22Z"
    fill="white" />
  <path
    d="M30.0538 17.6681H24.2935C23.9424 17.6681 23.6167 17.484 23.4361 17.1827L22.4356 15.5153C22.1514 15.0416 22.3047 14.4274 22.7784 14.1432C23.252 13.859 23.8663 14.0123 24.1504 14.486L24.8599 15.6681H29.4873L30.1968 14.486C30.481 14.0113 31.0948 13.8585 31.5689 14.1432C32.0425 14.4274 32.1958 15.0416 31.9117 15.5153L30.9112 17.1827C30.7305 17.484 30.4048 17.6681 30.0538 17.6681Z"
    fill="white" />
  <path
    d="M28.6943 36.5807H25.6528C25.1006 36.5807 24.6528 36.1329 24.6528 35.5807C24.6528 35.0284 25.1006 34.5807 25.6528 34.5807H28.6943C29.2466 34.5807 29.6943 35.0284 29.6943 35.5807C29.6943 36.1329 29.2466 36.5807 28.6943 36.5807Z"
    fill="white" />
  <defs>
    <linearGradient id="paint0_linear_46_239" x1="29.3973" y1="2.5" x2="29.3973" y2="52.5"
      gradientUnits="userSpaceOnUse">
      <stop stop-color="#5FF0E0" />
      <stop offset="1" stop-color="#717BF7" />
    </linearGradient>
  </defs>
</svg>
  