<svg width="36" height="36" viewBox="0 0 36 36" fill="none" xmlns="http://www.w3.org/2000/svg">
    <path
        d="M16.5 27H19.5M13.8 31.5H22.2C23.8802 31.5 24.7203 31.5 25.362 31.173C25.9265 30.8854 26.3854 30.4265 26.673 29.862C27 29.2203 27 28.3801 27 26.7V9.3C27 7.61985 27 6.77976 26.673 6.13803C26.3854 5.57354 25.9265 5.11459 25.362 4.82698C24.7203 4.5 23.8802 4.5 22.2 4.5H13.8C12.1198 4.5 11.2798 4.5 10.638 4.82698C10.0735 5.11459 9.61459 5.57354 9.32698 6.13803C9 6.77976 9 7.61983 9 9.3V26.7C9 28.3801 9 29.2203 9.32698 29.862C9.61459 30.4265 10.0735 30.8854 10.638 31.173C11.2798 31.5 12.1198 31.5 13.8 31.5Z"
        stroke="white" stroke-linecap="round" stroke-linejoin="round" />
</svg>
    