<svg width="54" height="54" viewBox="0 0 54 54" fill="none" xmlns="http://www.w3.org/2000/svg">
  <rect x="1" y="1" width="52" height="52" rx="26" fill="black" />
  <rect x="1" y="1" width="52" height="52" rx="26" stroke="url(#paint0_linear_44_50)"
    stroke-width="2" />
  <path
    d="M32.7275 39.1669H18.6523C16.0869 39.1669 14 37.0717 14 34.4965V23.1112C14 20.5458 16.0869 18.4584 18.6523 18.4584H32.7275C35.293 18.4584 37.3809 20.5458 37.3809 23.1112V25.4808C37.3809 26.0331 36.9336 26.4808 36.3809 26.4808C35.8281 26.4808 35.3809 26.0331 35.3809 25.4808V23.1112C35.3809 21.6483 34.1904 20.4584 32.7275 20.4584H18.6523C17.1894 20.4584 16 21.6483 16 23.1112V34.4965C16 35.9691 17.1894 37.1669 18.6523 37.1669H32.7275C34.1904 37.1669 35.3809 35.9691 35.3809 34.4965V32.1444C35.3809 31.5922 35.8281 31.1444 36.3809 31.1444C36.9336 31.1444 37.3809 31.5922 37.3809 32.1444V34.4965C37.3809 37.0717 35.293 39.1669 32.7275 39.1669Z"
    fill="white" />
  <path
    d="M36.6729 33.1635C36.3711 33.1635 36.0674 33.1224 35.7676 33.0389L34.0449 32.5585C32.6084 32.1586 31.6045 30.8368 31.6045 29.3446V28.2806C31.6045 26.7885 32.6084 25.4667 34.0449 25.0668L35.7676 24.5863C36.7793 24.3051 37.8418 24.5067 38.6816 25.1434C39.5195 25.7797 40 26.7479 40 27.8002V29.8251C40 30.8773 39.5195 31.8456 38.6816 32.4818C38.0908 32.9301 37.3897 33.1635 36.6729 33.1635ZM36.3047 31.1122C36.7119 31.226 37.1367 31.1434 37.4717 30.889C37.8076 30.6342 38 30.2465 38 29.8251V27.8002C38 27.3788 37.8076 26.9911 37.4717 26.7362C37.1367 26.4813 36.7109 26.3983 36.3047 26.5131L34.582 26.9936C34.0059 27.1537 33.6045 27.683 33.6045 28.2807V29.3446C33.6045 29.9423 34.0059 30.4716 34.582 30.6317L36.3047 31.1122Z"
    fill="white" />
  <path
    d="M18.2275 20.4589C17.79 20.4589 17.3877 20.1683 17.2646 19.7255C17.1172 19.1932 17.4287 18.6424 17.9609 18.4945L30.125 15.1215C31.123 14.8451 32.167 15.0453 32.9922 15.6717C33.8164 16.2987 34.289 17.2518 34.289 18.2875V19.2674C34.289 19.8197 33.8418 20.2674 33.289 20.2674C32.7363 20.2674 32.289 19.8197 32.289 19.2674V18.2875C32.289 17.8822 32.1045 17.5091 31.7812 17.264C31.459 17.0194 31.0527 16.9408 30.6601 17.0487L18.4961 20.4222C18.4062 20.4466 18.3164 20.4589 18.2275 20.4589Z"
    fill="white" />
  <defs>
    <linearGradient id="paint0_linear_44_50" x1="29.3973" y1="2.5" x2="29.3973" y2="52.5"
      gradientUnits="userSpaceOnUse">
      <stop stop-color="#5FF0E0" />
      <stop offset="1" stop-color="#717BF7" />
    </linearGradient>
  </defs>
</svg>
  