<svg width="36" height="36" viewBox="0 0 36 36" fill="none" xmlns="http://www.w3.org/2000/svg">
    <path
        d="M6.56144 24.3636V0.727271H7.45703V24.3636H6.56144ZM11.8519 7.81818C11.7534 6.64252 11.2733 5.69152 10.4116 4.9652C9.55599 4.23887 8.44804 3.87571 7.08771 3.87571C6.17057 3.87571 5.355 4.04498 4.64098 4.38352C3.92697 4.72206 3.36683 5.18371 2.96058 5.76846C2.55433 6.35322 2.35121 7.02415 2.35121 7.78125C2.35121 8.26752 2.44354 8.70762 2.6282 9.10156C2.81901 9.48935 3.08677 9.83712 3.43146 10.1449C3.77616 10.4465 4.18549 10.7112 4.65945 10.9389C5.1334 11.1667 5.65661 11.3667 6.22905 11.5391L8.29723 12.1484C9.00509 12.3639 9.65755 12.6132 10.2546 12.8963C10.8578 13.1795 11.381 13.518 11.8242 13.9119C12.2736 14.2997 12.6213 14.7552 12.8675 15.2784C13.1199 15.8016 13.2461 16.4048 13.2461 17.0881C13.2461 18.0852 12.9876 18.9777 12.4705 19.7656C11.9596 20.5535 11.2302 21.1752 10.2823 21.6307C9.34055 22.08 8.22952 22.3047 6.94922 22.3047C5.73047 22.3047 4.66868 22.0985 3.76385 21.6861C2.86518 21.2737 2.15424 20.7012 1.63104 19.9688C1.10784 19.2301 0.812382 18.3807 0.744673 17.4205H1.92649C1.98804 18.2022 2.23733 18.8793 2.67436 19.4517C3.11754 20.018 3.70537 20.455 4.43786 20.7628C5.17034 21.0705 6.00746 21.2244 6.94922 21.2244C7.96484 21.2244 8.86044 21.0521 9.63601 20.7074C10.4116 20.3565 11.0179 19.8703 11.4549 19.2486C11.8919 18.6269 12.1104 17.9036 12.1104 17.0788C12.1104 16.4141 11.9535 15.8447 11.6396 15.3707C11.3256 14.8968 10.8609 14.4875 10.2454 14.1428C9.63601 13.7981 8.87891 13.4903 7.97408 13.2195L5.7674 12.5547C4.29013 12.1054 3.16063 11.4929 2.37891 10.7173C1.60334 9.94176 1.21555 8.97538 1.21555 7.81818C1.21555 6.84564 1.47408 5.9839 1.99112 5.23295C2.50817 4.47585 3.20987 3.88186 4.09624 3.45099C4.98875 3.02012 5.99515 2.80469 7.11541 2.80469C8.24183 2.80469 9.23591 3.0232 10.0977 3.46023C10.9594 3.8911 11.6426 4.48508 12.1474 5.24219C12.6521 5.99313 12.9322 6.8518 12.9876 7.81818H11.8519Z"
        fill="white" />
</svg>
    