<svg width="36" height="36" viewBox="0 0 36 36" fill="none" xmlns="http://www.w3.org/2000/svg">
  <g clip-path="url(#clip0_170_519)">
    <path
      d="M18.2991 24.9209C17.7844 24.9209 17.3588 24.5131 17.341 23.9947L17.3372 23.8118C17.3007 22.895 17.5154 22.4731 17.8688 21.8638C18.4069 20.9319 19.2553 20.2232 20.4628 19.7C23.1074 18.5498 24.5662 15.8498 24.0899 12.9802C23.818 11.3415 22.8384 9.86493 21.4031 8.92651C19.9744 7.99372 18.2428 7.69091 16.6491 8.09496C13.7448 8.83277 11.8886 11.2955 11.9205 14.3695C11.9261 14.9001 11.5005 15.3342 10.9708 15.3398H10.9605C10.4346 15.3398 10.0061 14.917 10.0005 14.3902C9.95927 10.3984 12.3836 7.19781 16.1766 6.23408C18.2888 5.69784 20.5772 6.09252 22.4531 7.31968C24.3374 8.55059 25.6236 10.4987 25.9836 12.6652C26.6061 16.4198 24.6946 19.9541 21.2269 21.4606C20.4113 21.815 19.8563 22.2613 19.531 22.8256C19.2666 23.2812 19.2394 23.3281 19.2563 23.7743L19.2591 23.9272C19.2778 24.4568 18.8635 24.9021 18.3338 24.9199C18.3216 24.9209 18.3103 24.9209 18.2991 24.9209Z"
      fill="white" />
    <path
      d="M18.4059 30C19.2301 30 19.8984 29.3318 19.8984 28.5075C19.8984 27.6832 19.2301 27.015 18.4059 27.015C17.5816 27.015 16.9133 27.6832 16.9133 28.5075C16.9133 29.3318 17.5816 30 18.4059 30Z"
      fill="white" />
  </g>
  <defs>
    <clipPath id="clip0_170_519">
      <rect width="16.1002" height="24" fill="white" transform="translate(10 6)" />
    </clipPath>
  </defs>
</svg>
  