<svg width="54" height="54" viewBox="0 0 54 54" fill="none" xmlns="http://www.w3.org/2000/svg">
  <rect x="1" y="1" width="52" height="52" rx="26" stroke="url(#paint0_linear_44_248)"
    stroke-width="2" />
  <g clip-path="url(#clip0_44_248)">
    <path
      d="M39 20C38.4473 20 38 19.5522 38 19C38 17.3457 36.6543 16 35 16C34.4473 16 34 15.5523 34 15C34 14.4477 34.4473 14 35 14C37.7568 14 40 16.2432 40 19C40 19.5522 39.5527 20 39 20Z"
      fill="white" />
    <path
      d="M15 20C14.4473 20 14 19.5522 14 19C14 16.2432 16.2432 14 19 14C19.5527 14 20 14.4477 20 15C20 15.5523 19.5527 16 19 16C17.3457 16 16 17.3457 16 19C16 19.5522 15.5527 20 15 20Z"
      fill="white" />
    <path
      d="M19 40C16.2432 40 14 37.7568 14 35C14 34.4477 14.4473 34 15 34C15.5527 34 16 34.4477 16 35C16 36.6543 17.3457 38 19 38C19.5527 38 20 38.4478 20 39C20 39.5522 19.5527 40 19 40Z"
      fill="white" />
    <path
      d="M35 40C34.4473 40 34 39.5522 34 39C34 38.4478 34.4473 38 35 38C36.6543 38 38 36.6543 38 35C38 34.4477 38.4473 34 39 34C39.5527 34 40 34.4477 40 35C40 37.7568 37.7568 40 35 40Z"
      fill="white" />
    <path
      d="M26.208 22.4116H19.6758C19.1231 22.4116 18.6758 21.9639 18.6758 21.4116C18.6758 20.8594 19.1231 20.4116 19.6758 20.4116H26.208C26.7607 20.4116 27.208 20.8594 27.208 21.4116C27.208 21.9639 26.7607 22.4116 26.208 22.4116Z"
      fill="white" />
    <path
      d="M34.3232 22.4116H31.75C31.1973 22.4116 30.75 21.9639 30.75 21.4116C30.75 20.8594 31.1973 20.4116 31.75 20.4116H34.3232C34.876 20.4116 35.3232 20.8594 35.3232 21.4116C35.3232 21.9639 34.876 22.4116 34.3232 22.4116Z"
      fill="white" />
    <path
      d="M34.3232 33.5889H27.792C27.2393 33.5889 26.792 33.1411 26.792 32.5889C26.792 32.0366 27.2393 31.5889 27.792 31.5889H34.3232C34.876 31.5889 35.3232 32.0366 35.3232 32.5889C35.3232 33.1411 34.876 33.5889 34.3232 33.5889Z"
      fill="white" />
    <path
      d="M22.249 33.5889H19.6758C19.1231 33.5889 18.6758 33.1411 18.6758 32.5889C18.6758 32.0366 19.1231 31.5889 19.6758 31.5889H22.249C22.8018 31.5889 23.249 32.0366 23.249 32.5889C23.249 33.1411 22.8018 33.5889 22.249 33.5889Z"
      fill="white" />
    <path
      d="M34.3232 28H28.3262C27.7734 28 27.3262 27.5523 27.3262 27C27.3262 26.4477 27.7734 26 28.3262 26H34.3232C34.876 26 35.3232 26.4477 35.3232 27C35.3232 27.5523 34.876 28 34.3232 28Z"
      fill="white" />
    <path
      d="M23.9883 28H19.6758C19.1231 28 18.6758 27.5523 18.6758 27C18.6758 26.4477 19.1231 26 19.6758 26H23.9883C24.541 26 24.9883 26.4477 24.9883 27C24.9883 27.5523 24.541 28 23.9883 28Z"
      fill="white" />
  </g>
  <defs>
    <linearGradient id="paint0_linear_44_248" x1="29.3973" y1="2.5" x2="29.3973" y2="52.5"
      gradientUnits="userSpaceOnUse">
      <stop stop-color="#5FF0E0" />
      <stop offset="1" stop-color="#717BF7" />
    </linearGradient>
    <clipPath id="clip0_44_248">
      <rect width="26" height="26" fill="white" transform="translate(14 14)" />
    </clipPath>
  </defs>
</svg>
  