<svg width="54" height="54" viewBox="0 0 54 54" fill="none" xmlns="http://www.w3.org/2000/svg">
  <rect x="1" y="1" width="52" height="52" rx="26" stroke="url(#paint0_linear_44_494)"
    stroke-width="2" />
  <g clip-path="url(#clip0_44_494)">
    <path
      d="M27 37.0176C21.4766 37.0176 16.9824 32.5239 16.9824 27C16.9824 21.4766 21.4766 16.9829 27 16.9829C32.5234 16.9829 37.0176 21.4766 37.0176 27C37.0176 32.5239 32.5234 37.0176 27 37.0176ZM27 18.9829C22.5791 18.9829 18.9824 22.5796 18.9824 27C18.9824 31.4209 22.5791 35.0176 27 35.0176C31.4209 35.0176 35.0176 31.4209 35.0176 27C35.0176 22.5796 31.4209 18.9829 27 18.9829Z"
      fill="white" />
    <path
      d="M27 21.9653C26.4473 21.9653 26 21.5176 26 20.9653V15C26 14.4477 26.4473 14 27 14C27.5527 14 28 14.4477 28 15V20.9653C28 21.5176 27.5527 21.9653 27 21.9653Z"
      fill="white" />
    <path
      d="M27 40C26.4473 40 26 39.5522 26 39V33.0352C26 32.4829 26.4473 32.0352 27 32.0352C27.5527 32.0352 28 32.4829 28 33.0352V39C28 39.5522 27.5527 40 27 40Z"
      fill="white" />
    <path
      d="M38.9727 28.0005H33.0615C32.5088 28.0005 32.0615 27.5527 32.0615 27.0005C32.0615 26.4482 32.5088 26.0005 33.0615 26.0005H38.9727C39.5254 26.0005 39.9727 26.4482 39.9727 27.0005C39.9727 27.5527 39.5254 28.0005 38.9727 28.0005Z"
      fill="white" />
    <path
      d="M20.9648 28.0005H15C14.4473 28.0005 14 27.5527 14 27.0005C14 26.4482 14.4473 26.0005 15 26.0005H20.9648C21.5176 26.0005 21.9648 26.4482 21.9648 27.0005C21.9648 27.5527 21.5176 28.0005 20.9648 28.0005Z"
      fill="white" />
  </g>
  <defs>
    <linearGradient id="paint0_linear_44_494" x1="29.3973" y1="2" x2="29.3973" y2="52"
      gradientUnits="userSpaceOnUse">
      <stop stop-color="#5FF0E0" />
      <stop offset="1" stop-color="#717BF7" />
    </linearGradient>
    <clipPath id="clip0_44_494">
      <rect width="25.9727" height="26" fill="white" transform="translate(14 14)" />
    </clipPath>
  </defs>
</svg>
  