<svg width="54" height="54" viewBox="0 0 54 54" fill="none" xmlns="http://www.w3.org/2000/svg">
    <rect x="1" y="1" width="52" height="52" rx="26" stroke="url(#paint0_linear_44_29)"
        stroke-width="2" />
    <g clip-path="url(#clip0_44_29)">
        <path
            d="M20.5797 40.0024C19.9352 40.0024 19.2985 39.7988 18.7477 39.3989C17.8146 38.7207 17.3405 37.6323 17.4801 36.4873L18.0944 31.435C18.1349 31.103 18.0275 30.7729 17.8 30.5288L14.3332 26.8018C13.5475 25.9575 13.2912 24.7988 13.6476 23.7017C14.0041 22.6045 14.8922 21.8174 16.0246 21.5962L21.0192 20.6196C21.3473 20.5557 21.6286 20.3511 21.7912 20.0591L24.2633 15.6104C24.8234 14.6021 25.8468 14 27.0002 14C28.1535 14 29.1769 14.6021 29.737 15.6104L32.2091 20.0591C32.3717 20.3511 32.6535 20.5557 32.9811 20.6196L37.9762 21.5962C39.1081 21.8174 39.9967 22.6045 40.3527 23.7017C40.7091 24.7988 40.4528 25.9575 39.6671 26.8018L36.2003 30.5283C35.9728 30.773 35.8654 31.103 35.9059 31.4346L36.5202 36.4878C36.6598 37.6323 36.1857 38.7207 35.2526 39.3989C34.319 40.0767 33.1374 40.1904 32.092 39.7046L27.4772 37.5591C27.1735 37.4185 26.8263 37.4185 26.5236 37.5591L21.9079 39.7046C21.4792 39.9043 21.0275 40.0024 20.5797 40.0024ZM27.0002 16C26.8 16 26.3034 16.0566 26.0114 16.582L23.5392 21.0308C23.0895 21.8393 22.3112 22.4048 21.403 22.5825L16.4084 23.5591C15.819 23.6743 15.6115 24.1294 15.5495 24.3198C15.4879 24.5098 15.3883 25 15.797 25.4395L19.2638 29.166C19.8947 29.8433 20.192 30.7583 20.0797 31.6768L19.4655 36.729C19.3927 37.3252 19.7614 37.6631 19.9235 37.7808C20.0851 37.8979 20.5221 38.1435 21.0646 37.8911L25.6803 35.7456C26.5182 35.355 27.4816 35.355 28.3205 35.7456L32.9352 37.8911C33.4796 38.1435 33.9152 37.897 34.0768 37.7808C34.2389 37.6631 34.6076 37.3252 34.5348 36.7295L33.9206 31.6763C33.8083 30.7583 34.1056 29.8433 34.7365 29.1655L38.2033 25.4395C38.612 25 38.5124 24.5098 38.4508 24.3193C38.3888 24.1294 38.1818 23.6743 37.5924 23.5591L32.5973 22.5825C31.6901 22.4053 30.9118 21.8398 30.4616 21.0313L27.9889 16.582C27.6969 16.0567 27.2004 16 27.0002 16Z"
            fill="white" />
    </g>
    <defs>
        <linearGradient id="paint0_linear_44_29" x1="29.3973" y1="2.5" x2="29.3973" y2="52.5"
            gradientUnits="userSpaceOnUse">
            <stop stop-color="#5FF0E0" />
            <stop offset="1" stop-color="#717BF7" />
        </linearGradient>
        <clipPath id="clip0_44_29">
            <rect width="27.0203" height="26.0024" fill="white" transform="translate(13.49 14)" />
        </clipPath>
    </defs>
</svg>
    