<svg width="36" height="36" viewBox="0 0 36 36" fill="none" xmlns="http://www.w3.org/2000/svg">
    <path
        d="M22.964 11.2717C23.0369 11.4478 23.2036 11.5672 23.3938 11.5795L28.7426 11.9245C31.5019 12.1026 32.6652 15.5303 30.5844 17.3511L26.2999 21.1C26.1598 21.2226 26.0994 21.4128 26.1431 21.5936L27.3459 26.5769C27.9851 29.2251 25.143 31.3508 22.7833 29.9895L18.2499 27.374C18.0953 27.2848 17.9048 27.2848 17.7502 27.374L13.2167 29.9895C10.8571 31.3508 8.01491 29.2251 8.65412 26.5769L9.85698 21.5936C9.90064 21.4128 9.84024 21.2226 9.70019 21.1L5.41569 17.3511C3.33482 15.5303 4.4982 12.1026 7.25747 11.9245L12.6063 11.5795C12.7965 11.5672 12.9632 11.4478 13.0361 11.2717L15.1356 6.19791C16.192 3.64497 19.8081 3.64497 20.8645 6.19791L22.964 11.2717ZM19.2937 6.84791C18.8166 5.69497 17.1835 5.69497 16.7064 6.84791L14.2854 12.6986C14.1615 12.998 13.8781 13.2009 13.5548 13.2218L7.36692 13.621C6.1208 13.7014 5.5954 15.2494 6.53515 16.0717L11.4348 20.3589C11.6728 20.5672 11.7755 20.8905 11.7013 21.198L10.3067 26.9758C10.018 28.1717 11.3015 29.1318 12.3672 28.517L17.5753 25.5123C17.8381 25.3607 18.1619 25.3607 18.4248 25.5123L23.6329 28.517C24.6985 29.1318 25.9821 28.1717 25.6934 26.9758L24.2988 21.198C24.2245 20.8905 24.3272 20.5672 24.5653 20.3589L29.4649 16.0717C30.4047 15.2494 29.8793 13.7014 28.6331 13.621L22.4453 13.2218C22.1219 13.2009 21.8385 12.998 21.7146 12.6986L19.2937 6.84791Z"
        fill="white" stroke="black" stroke-linecap="round" stroke-linejoin="round" />
</svg>
    